# Blender 4.2.0
# www.blender.org
mtllib arrow.mtl
o Cube
v -0.250000 0.500000 1.316626
v 0.250000 0.500000 1.316626
v -0.250000 -0.500000 1.316626
v 0.250000 -0.500000 1.316626
v -0.250000 -0.500000 -0.183374
v -0.250000 0.500000 -0.183374
v 0.250000 0.500000 -0.183374
v 0.250000 -0.500000 -0.183374
v 0.250000 -0.500000 0.030500
v 0.250000 0.500000 0.030500
v -0.250000 0.500000 0.030500
v -0.250000 -0.500000 0.030500
v -0.250000 -0.500000 -0.183374
v -0.250000 0.500000 -0.183374
v 0.250000 0.500000 -0.183374
v 0.250000 -0.500000 -0.183374
v 0.250000 -0.500000 0.030500
v -0.250000 0.500000 0.030500
v 0.250000 0.500000 0.030500
v -0.250000 -0.500000 0.030500
v -0.462133 -0.712132 -0.183374
v -0.462133 0.712132 -0.183374
v 0.462132 0.712132 -0.183374
v 0.462132 -0.712132 -0.183374
v 0.462132 -0.712132 0.030500
v -0.462133 0.712132 0.030500
v 0.462132 0.712132 0.030500
v -0.462133 -0.712132 0.030500
v -0.000000 -0.000000 -1.231564
v -0.250000 -0.500000 -0.183374
v -0.250000 0.500000 -0.183374
v 0.250000 0.500000 -0.183374
v 0.250000 -0.500000 -0.183374
v -0.250000 -0.500000 -0.183374
v -0.250000 0.500000 -0.183374
v 0.250000 0.500000 -0.183374
v 0.250000 -0.500000 -0.183374
v -0.250000 -0.500000 -0.183374
v -0.250000 0.500000 -0.183374
v 0.250000 0.500000 -0.183374
v 0.250000 -0.500000 -0.183374
vn -0.0000 -0.0000 1.0000
vn -0.0000 -0.0000 -1.0000
vn -0.0000 1.0000 -0.0000
vn -0.0000 -1.0000 -0.0000
vn -1.0000 -0.0000 -0.0000
vn 1.0000 -0.0000 -0.0000
vn 0.9150 -0.0000 -0.4034
vn -0.0000 0.8272 -0.5620
vn -0.9150 -0.0000 -0.4034
vn -0.0000 -0.8272 -0.5620
vt 0.380019 0.032755
vt 0.380019 0.284489
vt 0.254153 0.284489
vt 0.254153 0.032755
vt 0.330652 0.358535
vt 0.530845 0.333572
vt 0.404978 0.333572
vt 0.404978 0.009811
vt 0.530845 0.009811
vt 0.671463 0.328125
vt 0.545596 0.328125
vt 0.545596 0.004364
vt 0.671463 0.004364
vt 0.736135 0.679240
vt 0.484402 0.679240
vt 0.484402 0.358535
vt 0.736135 0.358535
vt 0.496121 0.679240
vt 0.244387 0.679240
vt 0.244387 0.358535
vt 0.496121 0.358535
vt 0.179268 0.605295
vt 0.053401 0.605295
vt 0.000000 0.551894
vt 0.232668 0.551894
vt 0.062080 0.937107
vt 0.062080 0.685373
vt 0.115481 0.631972
vt 0.115481 0.990508
vt 0.947840 0.358535
vt 0.947840 0.000000
vt 1.001171 0.000000
vt 1.001171 0.358535
vt 0.000000 0.358535
vt 0.000000 0.000000
vt 0.053331 -0.000000
vt 0.053331 0.358535
vt 0.893973 0.317704
vt 0.661304 0.317704
vt 0.661304 0.263865
vt 0.893973 0.263865
vt 0.968804 0.676239
vt 0.736135 0.676239
vt 0.736135 0.622400
vt 0.968804 0.622400
vt 0.053401 0.677561
vt 0.053401 0.929294
vt 0.000000 0.982695
vt 0.000000 0.624160
vt 0.053401 0.499607
vt 0.179268 0.499607
vt 0.232668 0.553008
vt 0.000000 0.553008
vt 0.370233 0.992025
vt 0.524597 0.753229
vt 0.678961 0.992025
vt 0.767385 0.507165
vt 0.883720 0.243301
vt 1.000054 0.507165
vt 0.330652 0.179268
vt 0.776539 0.955271
vt 0.892873 0.691406
vt 1.009207 0.955271
s 0
usemtl Material
f 1/1/1 3/2/1 4/3/1 2/4/1
f 7/5/2 8/5/2 33/5/2 32/5/2
f 6/5/2 5/5/2 13/5/2 14/5/2
f 8/5/2 7/5/2 15/5/2 16/5/2
f 9/5/2 12/5/2 20/5/2 17/5/2
f 10/5/2 9/5/2 17/5/2 19/5/2
f 1/6/3 2/7/3 10/8/3 11/9/3
f 4/10/4 3/11/4 12/12/4 9/13/4
f 3/14/5 1/15/5 11/16/5 12/17/5
f 2/18/6 4/19/6 9/20/6 10/21/6
f 18/22/1 19/23/1 27/24/1 26/25/1
f 20/26/1 18/27/1 26/28/1 28/29/1
f 12/5/2 11/5/2 18/5/2 20/5/2
f 5/5/2 8/5/2 16/5/2 13/5/2
f 11/5/2 10/5/2 19/5/2 18/5/2
f 7/5/2 6/5/2 14/5/2 15/5/2
f 27/30/6 25/31/6 24/32/6 23/33/6
f 28/34/5 26/35/5 22/36/5 21/37/5
f 25/38/4 28/39/4 21/40/4 24/41/4
f 26/42/3 27/43/3 23/44/3 22/45/3
f 19/46/1 17/47/1 25/48/1 27/49/1
f 17/50/1 20/51/1 28/52/1 25/53/1
f 5/5/2 6/5/2 31/5/2 30/5/2
f 8/5/2 5/5/2 30/5/2 33/5/2
f 6/5/2 7/5/2 32/5/2 31/5/2
f 24/54/7 29/55/7 23/56/7
f 23/57/8 29/58/8 22/59/8
f 22/36/9 29/60/9 21/37/9
f 21/61/10 29/62/10 24/63/10
l 31 35
l 34 30
l 32 36
l 33 37
l 35 39
l 38 34
l 36 40
l 37 41
